HIERARCHY
ROOT Hips
{
	OFFSET 0.00000 0.00000 0.00000
	CHANNELS 6 Xposition Yposition Zposition Zrotation Yrotation Xrotation 
	JOINT LHipJoint
	{
		OFFSET 0 0 0
		CHANNELS 3 Zrotation Yrotation Xrotation
		JOINT LeftHip
		{
			OFFSET 1.52977 -1.71332 0.88991
			CHANNELS 3 Zrotation Yrotation Xrotation
			JOINT LeftKnee
			{
				OFFSET 2.23949 -6.15296 0.00000
				CHANNELS 3 Zrotation Yrotation Xrotation
				JOINT LeftAnkle
				{
					OFFSET 2.68396 -7.37412 0.00000
					CHANNELS 3 Zrotation Yrotation Xrotation
					JOINT LeftToe
					{
						OFFSET 0.20538 -0.56428 2.52710
						CHANNELS 3 Zrotation Yrotation Xrotation
						End Site
						{
							OFFSET 0.00000 -0.00000 1.29919
						}
					}
				}
			}
		}
	}
	JOINT RHipJoint
	{
		OFFSET 0 0 0
		CHANNELS 3 Zrotation Yrotation Xrotation
		JOINT RightHip
		{
			OFFSET -1.45689 -1.71333 0.88991
			CHANNELS 3 Zrotation Yrotation Xrotation
			JOINT RightKnee
			{
				OFFSET -2.36700 -6.50329 0.00000
				CHANNELS 3 Zrotation Yrotation Xrotation
				JOINT RightAnkle
				{
					OFFSET -2.69814 -7.41308 0.00000
					CHANNELS 3 Zrotation Yrotation Xrotation
					JOINT RightToe
					{
						OFFSET -0.18734 -0.51471 2.37479
						CHANNELS 3 Zrotation Yrotation Xrotation
						End Site
						{
							OFFSET -0.00000 -0.00000 1.22113
						}
					}
				}
			}
		}
	}
	JOINT lowerback
	{
		OFFSET 0 0 0
		CHANNELS 3 Zrotation Yrotation Xrotation
		JOINT Chest
		{
			OFFSET 0.04294 2.14638 -0.31163
			CHANNELS 3 Zrotation Yrotation Xrotation
			JOINT Chest2
			{
				OFFSET -0.00400 2.17216 0.01486
				CHANNELS 3 Zrotation Yrotation Xrotation
				JOINT lowerneck
				{
					OFFSET 0 0 0
					CHANNELS 3 Zrotation Yrotation Xrotation
					JOINT Neck
					{
						OFFSET 0.03869 1.76598 0.14916
						CHANNELS 3 Zrotation Yrotation Xrotation
						JOINT Head
						{
							OFFSET -0.00760 1.75513 -0.18948
							CHANNELS 3 Zrotation Yrotation Xrotation
							End Site
							{
								OFFSET -0.00601 1.82444 -0.08310
							}
						}
					}
				}
				JOINT LeftCollar
				{
					OFFSET 0 0 0
					CHANNELS 3 Zrotation Yrotation Xrotation
					JOINT LeftShoulder
					{
						OFFSET 3.73696 0.92058 0.01733
CHANNELS 3 Zrotation Xrotation Yrotation
						JOINT LeftElbow
						{
OFFSET 0 -5.227710 0.000000
CHANNELS 3 Zrotation Xrotation Yrotation
							JOINT LeftWrist
							{
OFFSET 0 -3.452510 0.000000
CHANNELS 3 Zrotation Xrotation Yrotation
								JOINT lhand
								{
									OFFSET 0 0 0
CHANNELS 3 Zrotation Xrotation Yrotation
									JOINT LFingers
									{
OFFSET 0 -0.552120 0.000000
CHANNELS 3 Zrotation Xrotation Yrotation
										End Site
										{
OFFSET 0 -0.445130 0.000000
										}
									}
								}
								JOINT LThumb
								{
OFFSET 0 0.000000 0.000000
CHANNELS 3 Zrotation Xrotation Yrotation
									End Site
									{
OFFSET 0 -0.451930 0.451930
									}
								}
							}
						}
					}
				}
				JOINT RightCollar
				{
					OFFSET 0 0 0
					CHANNELS 3 Zrotation Yrotation Xrotation
					JOINT RightShoulder
					{
						OFFSET -3.63819 0.83094 -0.13694
CHANNELS 3 Zrotation Xrotation Yrotation
						JOINT RightElbow
						{
OFFSET 0 -5.239800 -0.000000
CHANNELS 3 Zrotation Xrotation Yrotation
							JOINT RightWrist
							{
OFFSET 0 -3.480420 -0.000000
CHANNELS 3 Zrotation Xrotation Yrotation
								JOINT rhand
								{
									OFFSET 0 0 0
CHANNELS 3 Zrotation Xrotation Yrotation
									JOINT RFingers
									{
OFFSET 0 -0.618710 0.000000
CHANNELS 3 Zrotation Xrotation Yrotation
										End Site
										{
OFFSET 0 -0.498820 0.000000
										}
									}
								}
								JOINT RThumb
								{
OFFSET 0 0.000000 0.000000
CHANNELS 3 Zrotation Xrotation Yrotation
									End Site
									{
OFFSET 0 -0.506440 0.506440
									}
								}
							}
						}
					}
				}
			}
		}
	}
}
MOTION
Frames: 10
Frame Time: 0.008333333333333333
14.398319 16.245782 -6.320049 -791.689222 -84.483013 810.004334 0.000000 0.000000 0.000000 -10.867522 -13.979525 -53.125771 1.041480 6.490313 18.213828 0.838391 -0.965458 -17.004237 1.010278 -6.395065 -17.935111 0.000000 0.000000 0.000000 31.288426 10.693209 -27.743968 -5.979199 -14.408103 44.898036 -2.542473 1.082695 -29.905789 -0.123699 -2.266757 6.243541 4.590286 -0.579132 26.152054 0.894699 0.152575 5.174831 -1.668931 -0.207691 -8.728345 1.935270 -0.213513 0.369306 1.374658 -0.229706 -4.648701 0.105994 -0.187975 -1.494966 0.000000 0.000000 0.000000 2.873997 3.568200 -26.773568 15.239471 -24.478701 3.324548 18.914382 -21.711834 -10.631878 0.000000 0.000000 0.000000 -7.125000 0.000000 0.000000 -7.234311 41.096454 -0.700611 0.000000 0.000000 0.000000 -0.054507 0.755006 23.757654 -14.078693 -22.847175 -2.858573 -21.374850 4.337211 7.172420 0.000000 0.000000 0.000000 7.125000 0.000000 0.000000 4.625817 37.639629 0.840219
14.157923 16.212830 -6.297742 -795.231868 -84.420337 813.428870 0.000000 0.000000 0.000000 -10.418747 -14.378950 -52.246435 1.006342 6.383310 17.900818 0.807783 -1.484930 -16.544818 1.062231 -6.552461 -18.396048 0.000000 0.000000 0.000000 31.546680 10.349200 -26.530385 -5.927234 -14.357379 44.688820 -2.626688 1.332542 -30.339545 -0.100134 -2.039224 5.614160 4.616049 -0.518289 26.057029 0.870929 0.225564 5.207214 -1.734002 -0.173135 -8.638403 1.955189 -0.186250 0.419309 1.408018 -0.190024 -4.671108 0.112580 -0.169709 -1.510716 0.000000 0.000000 0.000000 2.919888 3.508747 -26.704133 15.194630 -24.416529 3.305986 18.977861 -21.602041 -10.653456 0.000000 0.000000 0.000000 -7.125000 0.000000 0.000000 -7.182320 41.124762 -0.690432 0.000000 0.000000 0.000000 -0.039957 0.863713 23.703085 -14.066751 -22.830067 -2.853988 -21.425620 4.363946 7.157984 0.000000 0.000000 0.000000 7.125000 0.000000 0.000000 4.581201 37.627470 0.833475
13.912395 16.178957 -6.274682 -798.821786 -84.337656 816.951623 0.000000 0.000000 0.000000 -9.953306 -14.779937 -51.403673 1.001609 6.368722 17.858015 0.768775 -2.052022 -15.995949 1.105042 -6.679037 -18.768066 0.000000 0.000000 0.000000 31.769922 10.012863 -25.332748 -5.868004 -14.299158 44.449650 -2.703829 1.629321 -30.715114 -0.076163 -1.779350 4.896312 4.632655 -0.449677 25.916832 0.847201 0.305570 5.227590 -1.795817 -0.134235 -8.538540 1.979707 -0.154325 0.454742 1.425770 -0.145167 -4.677748 0.113321 -0.148274 -1.518924 0.000000 0.000000 0.000000 2.963129 3.448867 -26.604035 15.155547 -24.362424 3.289824 19.043547 -21.564668 -10.635451 0.000000 0.000000 0.000000 -7.125000 0.000000 0.000000 -7.121580 41.112003 -0.686781 0.000000 0.000000 0.000000 -0.026472 0.973942 23.645172 -14.055469 -22.814029 -2.849613 -21.458192 4.430331 7.130871 0.000000 0.000000 0.000000 7.125000 0.000000 0.000000 4.550518 37.600722 0.830849
13.661989 16.148008 -6.250364 -802.215673 -84.250750 820.339334 0.000000 0.000000 0.000000 -9.579172 -15.134710 -50.655472 1.027104 6.446520 18.085684 0.702822 -2.410015 -15.198638 1.124482 -6.735675 -18.934655 0.000000 0.000000 0.000000 31.927786 9.659742 -24.161566 -5.794747 -14.226364 44.152165 -2.765869 1.985790 -30.985083 -0.053366 -1.487581 4.091511 4.637809 -0.385204 25.738193 0.818946 0.377805 5.228405 -1.853081 -0.097953 -8.441629 2.007829 -0.115363 0.461594 1.421076 -0.092742 -4.654249 0.106421 -0.122203 -1.512496 0.000000 0.000000 0.000000 3.000315 3.404633 -26.472285 15.129757 -24.326510 3.279177 19.101928 -21.580558 -10.585095 0.000000 0.000000 0.000000 -7.125000 0.000000 0.000000 -7.061781 41.064720 -0.689245 0.000000 0.000000 0.000000 -0.016246 1.080759 23.580379 -14.040705 -22.792858 -2.843848 -21.462662 4.540917 7.095765 0.000000 0.000000 0.000000 7.125000 0.000000 0.000000 4.542952 37.563546 0.833568
13.410026 16.124940 -6.224697 -805.005302 -84.218896 823.177124 0.000000 0.000000 0.000000 -9.447235 -15.376246 -50.028899 1.067779 6.569047 18.444794 0.592816 -2.422151 -13.915581 1.098557 -6.660032 -18.712137 0.000000 0.000000 0.000000 31.965177 9.261309 -23.019749 -5.698410 -14.129553 43.758813 -2.799648 2.355421 -31.090395 -0.031510 -1.144833 3.147299 4.606640 -0.343139 25.569944 0.776455 0.414206 5.206689 -1.893586 -0.077926 -8.377831 2.038077 -0.071380 0.436585 1.396706 -0.035525 -4.611241 0.092983 -0.092936 -1.494327 0.000000 0.000000 0.000000 3.031273 3.375363 -26.325090 15.117205 -24.309127 3.274018 19.153945 -21.616072 -10.517743 0.000000 0.000000 0.000000 -7.125000 0.000000 0.000000 -7.004725 40.999074 -0.694952 0.000000 0.000000 0.000000 -0.002436 1.172636 23.487420 -14.017384 -22.759603 -2.834866 -21.457656 4.696939 7.053158 0.000000 0.000000 0.000000 7.125000 0.000000 0.000000 4.542688 37.517615 0.838643
13.161173 16.122970 -6.198244 -806.417803 -84.360326 824.696578 0.000000 0.000000 0.000000 -9.725519 -15.468562 -49.671844 1.136861 6.770850 19.038370 0.452741 -2.036382 -12.152145 0.987991 -6.324450 -17.729289 0.000000 0.000000 0.000000 31.753497 8.820666 -21.976009 -5.594480 -14.023385 43.331493 -2.789307 2.692133 -30.952798 -0.013028 -0.720000 1.978749 4.476936 -0.349450 25.494281 0.702606 0.368503 5.157552 -1.886418 -0.095785 -8.398538 2.057776 -0.028669 0.370890 1.367597 0.018315 -4.582267 0.079870 -0.065244 -1.473530 0.000000 0.000000 0.000000 3.057852 3.328322 -26.183822 15.108472 -24.296981 3.270409 19.209801 -21.645460 -10.433988 0.000000 0.000000 0.000000 -7.125000 0.000000 0.000000 -6.941659 40.916535 -0.702888 0.000000 0.000000 0.000000 0.024239 1.223050 23.339304 -13.976781 -22.701465 -2.819131 -21.486395 4.883575 7.016867 0.000000 0.000000 0.000000 7.125000 0.000000 0.000000 4.514446 37.480765 0.837461
12.918332 16.134614 -6.172842 -806.304010 -84.727260 824.741249 0.000000 0.000000 0.000000 -10.398734 -15.453076 -49.567670 1.232077 7.039043 19.831212 0.322564 -1.421380 -10.320951 0.832071 -5.818773 -16.259813 0.000000 0.000000 0.000000 31.262296 8.410833 -21.105441 -5.518904 -13.945377 43.019008 -2.738024 2.952717 -30.598359 -0.001124 -0.204939 0.563171 4.204057 -0.394418 25.543007 0.592128 0.240929 5.087713 -1.811994 -0.150765 -8.512543 2.066692 0.001753 0.277516 1.351058 0.055193 -4.602875 0.072760 -0.046984 -1.463789 0.000000 0.000000 0.000000 3.096619 3.223586 -26.090579 15.093723 -24.276526 3.264413 19.262715 -21.662255 -10.346636 0.000000 0.000000 0.000000 -7.125000 0.000000 0.000000 -6.880780 40.830021 -0.711390 0.000000 0.000000 0.000000 0.070276 1.238619 23.137370 -13.931481 -22.636716 -2.801671 -21.573350 5.054902 6.987318 0.000000 0.000000 0.000000 7.125000 0.000000 0.000000 4.437529 37.454758 0.825974
12.684422 16.152245 -6.150561 -803.937321 -85.314001 822.617239 0.000000 0.000000 0.000000 -11.407341 -15.358252 -49.738631 1.362290 7.385905 20.864640 0.234321 -0.725973 -8.908086 0.671243 -5.235194 -14.581469 0.000000 0.000000 0.000000 30.488130 8.119344 -20.570958 -5.525975 -13.952706 43.048281 -2.641020 3.160535 -29.984572 -0.004589 0.386584 -1.062331 3.801422 -0.462402 25.729856 0.446345 0.053697 4.994287 -1.682699 -0.232061 -8.727254 2.059363 -0.002305 0.180835 1.379807 0.047636 -4.716265 0.083093 -0.053207 -1.483080 0.000000 0.000000 0.000000 3.178169 3.024594 -26.131239 15.090337 -24.271792 3.262995 19.312515 -21.653708 -10.275817 0.000000 0.000000 0.000000 -7.125000 0.000000 0.000000 -6.825589 40.760274 -0.717377 0.000000 0.000000 0.000000 0.146853 1.256280 22.889326 -13.921171 -22.621962 -2.797747 -21.710030 5.156748 7.003999 0.000000 0.000000 0.000000 7.125000 0.000000 0.000000 4.323253 37.481207 0.801852
12.456276 16.175200 -6.131811 -799.574057 -85.913199 818.579980 0.000000 0.000000 0.000000 -12.470421 -15.185946 -50.126754 1.532540 7.814899 22.153809 0.185141 -0.195657 -8.057364 0.539697 -4.705137 -13.069852 0.000000 0.000000 0.000000 29.639202 7.944878 -20.375055 -5.627708 -14.057486 43.468374 -2.507634 3.387835 -29.139612 -0.024230 0.994121 -2.732646 3.417452 -0.522557 25.963326 0.299743 -0.118588 4.888961 -1.568618 -0.306281 -8.976957 2.043033 -0.047261 0.111943 1.460394 -0.011334 -4.909203 0.111764 -0.087577 -1.532778 0.000000 0.000000 0.000000 3.307099 2.747162 -26.310795 15.116640 -24.308410 3.273799 19.333134 -21.619498 -10.210533 0.000000 0.000000 0.000000 -7.125000 0.000000 0.000000 -6.796781 40.693773 -0.725513 0.000000 0.000000 0.000000 0.249007 1.314146 22.648352 -13.962217 -22.680661 -2.813496 -21.860491 5.170528 7.057584 0.000000 0.000000 0.000000 7.125000 0.000000 0.000000 4.201062 37.548296 0.772187
12.230727 16.182967 -6.115110 -793.726254 -86.298984 813.150060 0.000000 0.000000 0.000000 -13.409443 -14.824521 -50.659245 1.712790 8.239087 23.443466 0.156429 -0.041364 -7.454300 0.447452 -4.289737 -11.893579 0.000000 0.000000 0.000000 28.935399 7.831599 -20.514582 -5.811401 -14.242755 44.219513 -2.324622 3.657969 -27.956365 -0.059300 1.562656 -4.298615 3.222498 -0.560328 26.139543 0.197977 -0.212093 4.786313 -1.538609 -0.346801 -9.188538 2.012624 -0.131185 0.100679 1.590448 -0.118209 -5.163124 0.159070 -0.147971 -1.612165 0.000000 0.000000 0.000000 3.454590 2.406818 -26.582236 15.198699 -24.422148 3.307671 19.339371 -21.541009 -10.156304 0.000000 0.000000 0.000000 -7.125000 0.000000 0.000000 -6.782600 40.637639 -0.733434 0.000000 0.000000 0.000000 0.337515 1.408844 22.533439 -14.050770 -22.807254 -2.847737 -21.970604 5.052109 7.145784 0.000000 0.000000 0.000000 7.125000 0.000000 0.000000 4.116590 37.650026 0.746294
